<?xml version="1.0" encoding="utf-8"?>
<!-- Generator: Adobe Illustrator 27.5.0, SVG Export Plug-In . SVG Version: 6.00 Build 0)  -->
<svg version="1.1" xmlns="http://www.w3.org/2000/svg" xmlns:xlink="http://www.w3.org/1999/xlink" x="0px" y="0px"
	 viewBox="0 0 750 500" style="enable-background:new 0 0 750 500;" xml:space="preserve">
<g id="Background">
	<rect style="fill:#B6C6FF;" width="750" height="500"/>
</g>
<g id="Objects">
	<g>
		<g>
			<g>
				<g>
					<path style="fill:#69A4F9;" d="M308.469,127.177c56.7-5.496,109.463-68.679,196.602-82.915
						c87.14-14.237,132.509,2.514,172.117,52.765c39.607,50.25,37.582,101.968,24.552,148.973
						c-13.03,47.006,12.176,47.006,21.539,102.283c9.362,55.275-10.803,107.203-41.77,116.416H65.057
						c0,0-43.929-13.402-40.329-82.915c3.601-69.516,35.287-58.627,35.287-109.714c0-51.089-22.325-76.215,37.449-136.517
						C157.236,75.251,239.333,133.877,308.469,127.177"/>
					<g>
						<defs>
							<path id="SVGID_1_" d="M308.469,127.177c56.7-5.496,109.463-68.679,196.602-82.915
								c87.14-14.237,132.509,2.514,172.117,52.765c39.607,50.25,37.582,101.968,24.552,148.973
								c-13.03,47.006,12.176,47.006,21.539,102.283c9.362,55.275-10.803,107.203-41.77,116.416H65.057
								c0,0-43.929-13.402-40.329-82.915c3.601-69.516,35.287-58.627,35.287-109.714c0-51.089-22.325-76.215,37.449-136.517
								C157.236,75.251,239.333,133.877,308.469,127.177"/>
						</defs>
						<clipPath id="SVGID_00000036933430088974205080000017601401883557830531_">
							<use xlink:href="#SVGID_1_"  style="overflow:visible;"/>
						</clipPath>
						<polygon style="clip-path:url(#SVGID_00000036933430088974205080000017601401883557830531_);fill:#314984;" points="
							671.512,212.684 671.512,156.836 626.135,156.836 626.135,254.569 596.116,254.569 596.116,96.799 546.552,136.59 
							546.552,254.569 520.722,254.569 520.722,152.648 483.723,152.648 483.723,202.212 459.528,202.212 459.528,131.704 
							408.328,131.704 408.328,202.212 408.328,228.74 392.271,228.74 392.271,179.873 349.687,179.873 349.687,228.74 
							349.687,254.569 322.461,254.569 322.461,165.725 283.367,165.725 283.367,205.702 269.645,205.702 269.645,145.666 
							244.972,145.666 244.972,165.725 228.915,165.725 228.915,234.325 212.859,234.325 212.859,131.006 156.313,178.595 
							156.313,228.042 129.786,228.042 129.786,174.986 87.202,174.986 87.202,267.135 20.184,267.135 20.184,462.603 
							87.202,462.603 102.56,462.603 107.446,462.603 116.521,462.603 129.786,462.603 156.313,462.603 170.974,462.603 
							175.86,462.603 212.859,462.603 228.915,462.603 235.896,462.603 244.972,462.603 267.311,462.603 268.01,462.603 
							269.645,462.603 283.367,462.603 304.31,462.603 322.461,462.603 349.687,462.603 392.271,462.603 408.328,462.603 
							446.025,462.603 459.528,462.603 483.723,462.603 504.665,462.603 520.722,462.603 546.552,462.603 562.607,462.603 
							587.041,462.603 596.116,462.603 626.135,462.603 654.059,462.603 657.549,462.603 671.512,462.603 749,462.603 749,212.684 
													"/>
					</g>
				</g>
				<g>
					<path style="fill:#FFFFFF;" d="M542.205,84.954c-1.804,0-3.576,0.328-5.258,0.9c0.113-0.806,0.191-1.623,0.191-2.459
						c0-10.19-8.666-18.449-19.358-18.449c-10.69,0-19.357,8.259-19.357,18.449c0,0.336,0.034,0.666,0.054,0.999
						c-2.282-1.679-5.194-2.688-8.367-2.688c-7.319,0-13.252,5.352-13.252,11.953c0,0.163,0.02,0.321,0.026,0.482
						c-1.374-0.474-2.839-0.743-4.329-0.743c-6.378,0-11.548,4.76-11.548,10.631c0,5.87,4.387,8.467,10.765,8.467h71.474
						c8.467,0,14.291-3.746,14.291-12.211C557.536,91.816,550.673,84.954,542.205,84.954"/>
					<path style="fill:#FFFFFF;" d="M225.582,72.193c0.681,0,1.355,0.054,2.023,0.132c-0.358-1.528-0.57-3.116-0.57-4.759
						c0-11.069,8.639-20.042,19.295-20.042c9.143,0,16.783,6.613,18.772,15.482c2.769-3.61,7.153-5.954,12.105-5.954
						c8.376,0,15.169,6.677,15.169,14.913c0,1.85-0.359,3.61-0.984,5.245c1.603-0.57,3.325-0.886,5.076-0.886
						c7.115,0,12.881,5.171,12.881,11.549c0,6.378-4.893,9.2-12.008,9.2c-0.533,0-1.067-0.022-1.6-0.053l0.044,0.053h-71.238
						c-8.439,0-14.243-3.384-14.243-11.031C210.304,78.393,217.144,72.193,225.582,72.193"/>
					<path style="fill:#FFFFFF;" d="M334.566,139.985c0.854,0,1.698,0.11,2.516,0.298c-0.248-0.9-0.392-1.834-0.392-2.8
						c0-6.723,6.347-12.174,14.177-12.174c6.141,0,11.356,3.361,13.325,8.052c1.953-1.706,4.733-2.78,7.828-2.78
						c5.909,0,10.705,3.895,10.705,8.699c0,1.069-0.25,2.088-0.684,3.035c0.949-0.182,1.931-0.287,2.926-0.287
						c5.872,0,10.632,3.387,10.632,7.566c0,3.696-3.165,5.566-7.963,5.949l0.079,0.077h-52.342c0,0-0.01-0.023-0.025-0.059
						c-0.478,0.035-0.959,0.059-1.437,0.059c-5.334,0-9.004-2.127-9.004-6.933C324.907,143.881,329.232,139.985,334.566,139.985"/>
					<path style="fill:#FFFFFF;" d="M160.777,140.013c-0.747,0-1.482,0.104-2.196,0.279c0.215-0.845,0.341-1.723,0.341-2.632
						c0-6.322-5.542-11.447-12.38-11.447c-5.363,0-9.917,3.16-11.637,7.571c-1.707-1.605-4.134-2.614-6.835-2.614
						c-5.164,0-9.35,3.663-9.35,8.18c0,1.005,0.218,1.964,0.597,2.853c-0.828-0.17-1.686-0.269-2.554-0.269
						c-5.129,0-9.286,3.185-9.286,7.114c0,3.476,2.765,5.234,6.953,5.594l-0.069,0.074h45.711c0,0,0.008-0.021,0.021-0.056
						c0.418,0.034,0.838,0.056,1.256,0.056c4.658,0,7.863-2,7.863-6.519C169.212,143.677,165.436,140.013,160.777,140.013"/>
				</g>
			</g>
			<path style="fill:#2C364F;" d="M719.457,458.301H31.478c-3.141,0-5.687,2.546-5.687,5.686c0,3.14,2.546,5.686,5.687,5.686
				h687.979c3.14,0,5.686-2.546,5.686-5.686C725.143,460.847,722.597,458.301,719.457,458.301"/>
		</g>
		<g>
			<path style="fill:#B8C9F1;" d="M123.649,451.55c0,0-11.682-0.712-12.349-0.488c-0.666,0.222-2.532,6.751-2.754,8.883
				c-0.222,2.133,0.755,2.311,4.264,2.311h24.787c1.066,0,1.466-3.732,1.022-5.108C138.174,455.769,136.62,454.97,123.649,451.55"/>
			<path style="fill:#547BDD;" d="M69.545,375.99c0,0-1.222-0.11-1.91,1.645c-0.689,1.755-2.487,6.685-1.488,13.482
				c1,6.794,15.726,44.308,14.926,44.242c-0.8-0.067-28.917-4.531-28.917-4.531s-3.666,4.131-2.599,12.927
				c0,0,27.251,6.328,36.181,6.529c8.927,0.199,14.059-4.198,12.593-12.127c-1.466-7.93-11.328-38.713-11.328-38.713l5.53-1.267
				c0,0,30.317,12.194,30.651,12.661c0.332,0.466-11.528,39.179-11.594,39.911c-0.067,0.733,9.261,2.798,12.459,1.134
				c0,0,12.926-37.313,14.992-45.11c2.065-7.797-16.059-12.728-26.386-16.924c-10.328-4.196-10.906-4.375-11.083-5.285
				c-0.178-0.911-3.443-2.577-3.443-2.577L69.545,375.99z"/>
			<path style="fill:#ED822B;" d="M111.056,333.48c0,0,3.709-0.289,5.086,2.487c1.377,2.776,1.643,18.701,2.176,24.298
				c0.533,5.597,1.467,12.127,1.467,12.127l16.257,7.663l-1.999,8.994c0,0-21.388-8.994-22.987-11.594
				c-1.599-2.597-2.932-8.993-2.466-21.721C109.057,343.01,111.056,333.48,111.056,333.48"/>
			<path style="fill:#FDFEFF;" d="M128.311,452.802c-1.248,1.194-3.057,3.895-3.144,9.453h12.43c1.066,0,1.466-3.732,1.021-5.108
				C138.235,455.955,137.015,455.195,128.311,452.802"/>
			<path style="fill:#FDFEFF;" d="M108.565,459.805c-0.005,0.044-0.015,0.099-0.019,0.14c-0.222,2.133,0.754,2.311,4.264,2.311
				h24.787c0.558,0,0.932-1.024,1.099-2.197L108.565,459.805z"/>
		</g>
		<g>
			<path style="fill:#90A1D3;" d="M626.175,459.367h-98.08c-4.809,0-8.707-3.898-8.707-8.706V232.824
				c0-4.808,3.898-8.706,8.707-8.706h98.08c4.809,0,8.706,3.899,8.706,8.706v217.837
				C634.881,455.469,630.983,459.367,626.175,459.367"/>
			<path style="fill:#B8C9F1;" d="M610.184,224.118h-98.08c-4.809,0-8.707,3.899-8.707,8.706V450.66
				c0,4.809,3.898,8.708,8.707,8.708h98.08c4.809,0,8.706-3.9,8.706-8.708V232.824C618.89,228.017,614.992,224.118,610.184,224.118"
				/>
			<path style="fill:#90A1D3;" d="M589.75,234.779h-68.229c-3.729,0-6.752,3.022-6.752,6.751v80.667
				c0,3.729,3.023,6.752,6.752,6.752h68.229c3.728,0,6.752-3.023,6.752-6.752V241.53
				C596.502,237.801,593.478,234.779,589.75,234.779"/>
			<path style="fill:#283049;" d="M585.309,239.398h-59.346c-3.043,0-5.509,2.466-5.509,5.509v11.016
				c0,3.042,2.466,5.509,5.509,5.509h59.346c3.042,0,5.507-2.467,5.507-5.509v-11.016
				C590.815,241.864,588.351,239.398,585.309,239.398"/>
			<path style="fill:#EFB229;" d="M525.963,258.233c-1.274,0-2.311-1.037-2.311-2.31v-11.016c0-1.274,1.036-2.311,2.311-2.311
				h59.346c1.273,0,2.309,1.037,2.309,2.311v11.016c0,1.273-1.035,2.31-2.309,2.31H525.963z"/>
			<rect x="551.903" y="265.695" style="fill:#283049;" width="37.491" height="51.35"/>
			<rect x="551.903" y="265.695" style="fill:#303B56;" width="34.47" height="47.212"/>
			<rect x="554.925" y="305.674" style="fill:#EFB229;" width="31.449" height="7.233"/>
			<rect x="554.925" y="269.604" style="fill:#B8C9F1;" width="9.417" height="9.595"/>
			<rect x="566.119" y="269.604" style="fill:#B8C9F1;" width="9.416" height="9.595"/>
			<rect x="522.765" y="265.962" style="fill:#FFFFFF;" width="6.771" height="4.265"/>
			<rect x="531.807" y="265.962" style="fill:#FFFFFF;" width="6.771" height="4.265"/>
			<rect x="522.765" y="273.068" style="fill:#FFFFFF;" width="6.771" height="4.265"/>
			<rect x="531.807" y="273.068" style="fill:#FFFFFF;" width="6.771" height="4.265"/>
			<rect x="522.765" y="280.176" style="fill:#FFFFFF;" width="6.771" height="4.265"/>
			<rect x="531.807" y="280.176" style="fill:#FFFFFF;" width="6.771" height="4.265"/>
			<rect x="577.313" y="269.604" style="fill:#B8C9F1;" width="9.417" height="9.595"/>
			<path style="fill:#283049;" d="M521.698,318.022c0-1.324,1.074-2.4,2.398-2.4s2.399,1.075,2.399,2.4
				c0,1.324-1.075,2.398-2.399,2.398S521.698,319.347,521.698,318.022"/>
			<rect x="519.388" y="351.604" style="fill:#3C62AF;" width="115.493" height="7.196"/>
			<rect x="503.396" y="351.604" style="fill:#547BDD;" width="115.493" height="7.196"/>
		</g>
		<path style="fill:#B8C9F1;" d="M665.485,435.097c-2.22,0-4.476-0.05-6.77-0.15c-22.001-0.971-49.572-7.469-60.973-22.8
			c-0.219-0.295-0.158-0.713,0.138-0.933c0.296-0.218,0.712-0.158,0.933,0.138c11.121,14.955,38.265,21.306,59.962,22.264
			c23.905,1.049,44.88-3.752,52.188-11.96c16.455-18.479,7.351-33.512,2.46-41.588c-0.495-0.817-0.977-1.597-1.441-2.351
			c-4.906-7.942-8.147-13.189-5.172-27.448c3.237-15.506,3.442-19.772-1.984-26.082c-5.436-6.319-12.533-5.512-12.605-5.503
			c-0.354,0.043-0.697-0.212-0.743-0.579c-0.046-0.364,0.214-0.697,0.579-0.744c0.317-0.037,7.885-0.898,13.779,5.958
			c6.096,7.088,5.347,12.529,2.279,27.223c-2.867,13.738,0.095,18.532,5,26.477c0.468,0.756,0.951,1.539,1.447,2.358
			c5.07,8.372,14.507,23.952-2.604,43.166C704.994,430.363,687.148,435.096,665.485,435.097"/>
		<g>
			<g>
				<path style="fill:#283049;" d="M486.003,434.848c0,0-0.373-3.554,18.816-3.554c19.19,0,83.211-4.807,80.872,2.838
					c0,0,7.435-10.301,8.322-17.052c0.89-6.753-5.863-58.28-59.167-55.615c-53.305,2.666-58.102,41.045-56.857,55.437
					C479.233,431.294,479.981,433.961,486.003,434.848"/>
				<path style="fill:#283049;" d="M159.585,432.715c0,0-1.244-3.731,28.606-1.421c29.85,2.31,67.736,1.404,71.092,6.743
					c0,0,8.154-9.23,8.154-24.689c0-15.459-17.946-51.173-56.681-50.64c-38.734,0.533-56.502,21.677-56.502,21.677
					S145.904,424.186,159.585,432.715"/>
				<path style="fill:#99ABD5;" d="M623.154,374.613c-1.599-3.908-3.021-6.93-6.752-7.284c0,0-8.173-16.703-11.55-19.19
					c-6.751-4.975-49.751-23.099-110.694-26.651c0,0-42.015-30.935-94.705-50.817c-37.668-14.214-193.316,3.909-217.836,9.24
					c-24.52,5.33-21.499,5.684-17.768,11.371c0,0-17.235,25.23-17.057,28.073c0.177,2.844,3.02,4.798,2.665,9.24
					c-0.356,4.441-6.041,31.626-8.351,32.516c-2.309,0.888-8.172-1.066-9.595-0.711c-1.421,0.354-5.686,18.656-5.152,29.139
					c0.533,10.484,3.198,32.516,33.227,43.177l0.046,0.003c-1.085-4.197-1.663-8.598-1.663-13.135
					c0-28.903,23.431-52.336,52.336-52.336c28.903,0,52.335,23.433,52.335,52.336c0,6.498-1.193,12.714-3.356,18.454l0.158,0.008
					c0,0,10.839,0.711,12.793,0.711c1.955,0,3.731-2.486,6.22-2.665c2.446-0.175,201.17-1.209,207.549-1.243
					c-1.688-5.14-2.612-10.625-2.612-16.33c0-28.904,23.432-52.336,52.336-52.336c28.903,0,52.336,23.432,52.336,52.336
					c0,5.438-0.831,10.683-2.371,15.614c2.23-0.028,13.546-0.173,14.186-0.173c0.711,0,19.545-12.971,20.078-15.991
					C620.489,414.947,624.754,378.522,623.154,374.613"/>
				<path style="fill:#EA343D;" d="M623.154,374.613c-1.599-3.908-3.021-6.93-6.752-7.284c0,0-8.173-16.703-11.55-19.19
					c-6.751-4.975-49.751-23.099-110.694-26.651c0,0-42.015-30.935-94.705-50.817c-37.668-14.214-193.316,3.909-217.836,9.24
					c-24.52,5.33-21.499,5.684-17.768,11.371c0,0-17.235,25.23-17.057,28.073c0.177,2.844,3.02,4.798,2.665,9.24
					c-0.356,4.441-6.041,31.626-8.351,32.516c-2.309,0.888-8.172-1.066-9.595-0.711c-1.421,0.354-5.686,18.656-5.152,29.139
					c0.533,10.484,3.198,32.516,33.227,43.177l0.046,0.003c-1.085-4.197-1.663-8.598-1.663-13.135
					c0-28.903,23.431-52.336,52.336-52.336c28.903,0,52.335,23.433,52.335,52.336c0,6.498-1.193,12.714-3.356,18.454l0.158,0.008
					c0,0,10.839,0.711,12.793,0.711c1.955,0,3.731-2.486,6.22-2.665c2.446-0.175,201.17-1.209,207.549-1.243
					c-1.688-5.14-2.612-10.625-2.612-16.33c0-28.904,23.432-52.336,52.336-52.336c28.903,0,52.336,23.432,52.336,52.336
					c0,5.438-0.831,10.683-2.371,15.614c2.23-0.028,13.546-0.173,14.186-0.173c0.711,0,19.545-12.971,20.078-15.991
					C620.489,414.947,624.754,378.522,623.154,374.613"/>
				<path style="fill:#BF2235;" d="M275.509,426.259c4.107-7.255,6.238-16.268,5.268-24.596c-0.92-7.905-3.882-16.577-8.481-23.129
					c-3.508-4.998-8.332-8.503-13.68-11.337c-13.313-7.054-28.15-10.687-41.312-18.014c-9.781-5.445-17.87-14.51-15.013-26.449
					c1.56-6.518,5.385-12.055,9.283-17.396c4.296-5.889,8.952-11.517,13.981-16.793c5.783-6.066,11.984-11.711,18.533-16.918
					c-29.67,3.044-53.964,6.433-62.471,8.282c-24.52,5.33-21.499,5.684-17.768,11.371c0,0-17.235,25.23-17.057,28.073
					c0.177,2.844,3.02,4.798,2.665,9.24c-0.356,4.441-6.041,31.626-8.351,32.516c-2.309,0.888-8.172-1.066-9.595-0.711
					c-1.421,0.354-5.686,18.656-5.152,29.139c0.533,10.484,3.198,32.516,33.227,43.177l0.046,0.003
					c-1.085-4.197-1.663-8.598-1.663-13.135c0-28.903,23.431-52.336,52.336-52.336c28.903,0,52.335,23.433,52.335,52.336
					c0,6.498-1.193,12.714-3.356,18.454l0.158,0.008c0,0,2.328,0.153,5.02,0.316C268.659,434.802,272.777,431.085,275.509,426.259z"
					/>
				<path style="fill:#BF2235;" d="M573.848,344.94c0,0-7.374-6.13-87.063-9.328h-31.716l6.311,99.366
					c14.014-0.075,23.322-0.123,24.623-0.131c-1.688-5.14-2.612-10.625-2.612-16.33c0-28.904,23.432-52.336,52.336-52.336
					c28.903,0,52.336,23.432,52.336,52.336c0,5.438-0.831,10.683-2.371,15.614c2.23-0.028,13.546-0.173,14.186-0.173
					c0.711,0,19.545-12.971,20.078-15.991c0.533-3.021,4.798-39.445,3.198-43.354c-1.599-3.908-3.021-6.93-6.752-7.284l-4.087-0.8
					L573.848,344.94z"/>
				<path style="fill:#A01A37;" d="M526.37,367.032c-10.269,0.645-20.551,2.538-30.748,1.04c-5.05-0.742-11.085-2.07-14.461-6.241
					c-2.44-3.015-3.831-6.889-5.193-10.472c-1.7-4.474-3.696-11.701-7.615-15.747h-13.284l6.311,99.366
					c14.014-0.075,23.322-0.123,24.623-0.131c-1.688-5.14-2.612-10.625-2.612-16.33C483.391,392.809,501.933,371.445,526.37,367.032
					z"/>
				<g>
					<path style="fill:#20222B;" d="M491.807,418.518c0-24.257,19.664-43.92,43.92-43.92c24.256,0,43.919,19.663,43.919,43.92
						c0,24.257-19.663,43.92-43.919,43.92C511.471,462.438,491.807,442.774,491.807,418.518"/>
					<path style="fill:#B8C9F1;" d="M567.931,418.52c0,18.025-14.613,32.64-32.639,32.64c-18.026,0-32.641-14.614-32.641-32.64
						s14.614-32.64,32.641-32.64C553.317,385.88,567.931,400.494,567.931,418.52z"/>
					<g>
						<path style="fill:#272B3A;" d="M530.088,419.089c-0.315-3.086,1.931-5.841,5.018-6.156c3.086-0.314,5.843,1.933,6.157,5.019
							c0.314,3.086-1.933,5.842-5.019,6.156C533.158,424.422,530.402,422.176,530.088,419.089"/>
						<path style="fill:#272B3A;" d="M528.688,407.121l0.565-12.515c0.106-2.377-2.277-4.105-4.485-3.219
							c-6.622,2.656-11.968,7.637-15.142,13.847c-1.094,2.136,0.481,4.681,2.883,4.735l12.817,0.293
							C527.114,410.303,528.607,408.908,528.688,407.121"/>
						<path style="fill:#272B3A;" d="M554.759,434.39c1.31,1.958,4.214,1.952,5.492-0.027c3.476-5.383,5.215-11.936,4.515-18.806
							c-0.001-0.017-0.003-0.034-0.006-0.051c-0.244-2.363-2.931-3.618-4.95-2.366l-10.732,6.655
							c-1.584,0.982-2.036,3.08-0.999,4.629L554.759,434.39z"/>
						<path style="fill:#272B3A;" d="M544.146,408.345l12.496-2.871c2.34-0.538,3.369-3.349,1.868-5.222
							c-4.361-5.44-10.602-9.239-17.623-10.508c-2.341-0.422-4.329,1.752-3.743,4.058l3.075,12.145
							C540.659,407.68,542.403,408.746,544.146,408.345"/>
						<path style="fill:#272B3A;" d="M534.732,432.627l-7.23,9.199c-1.494,1.902-0.5,4.729,1.862,5.252
							c2.966,0.656,6.086,0.857,9.274,0.533c3.188-0.325,6.203-1.152,8.977-2.393c2.208-0.988,2.612-3.958,0.765-5.52l-8.938-7.552
							C538.021,430.945,535.883,431.164,534.732,432.627"/>
						<path style="fill:#272B3A;" d="M510.951,418.117c-2.231-0.819-4.609,0.952-4.374,3.316c0.003,0.017,0.006,0.033,0.007,0.05
							c0.7,6.869,3.725,12.939,8.215,17.509c1.651,1.682,4.494,1.102,5.386-1.08l4.533-11.11c0.703-1.724-0.164-3.688-1.912-4.33
							L510.951,418.117z"/>
					</g>
				</g>
				<g>
					<path style="fill:#20222B;" d="M166.384,418.518c0-24.257,19.663-43.92,43.919-43.92s43.92,19.663,43.92,43.92
						c0,24.257-19.663,43.92-43.92,43.92S166.384,442.774,166.384,418.518"/>
					<path style="fill:#B8C9F1;" d="M243.476,419.053c0,18.32-14.851,33.172-33.171,33.172c-18.321,0-33.173-14.852-33.173-33.172
						c0-18.32,14.853-33.173,33.173-33.173C228.625,385.88,243.476,400.732,243.476,419.053z"/>
					<g>
						<path style="fill:#272B3A;" d="M204.665,419.089c-0.314-3.086,1.932-5.841,5.018-6.156c3.086-0.314,5.842,1.933,6.157,5.019
							c0.314,3.086-1.933,5.842-5.018,6.156C207.735,424.422,204.979,422.176,204.665,419.089"/>
						<path style="fill:#272B3A;" d="M203.265,407.121l0.566-12.515c0.106-2.377-2.277-4.105-4.485-3.219
							c-6.623,2.656-11.968,7.637-15.143,13.847c-1.092,2.136,0.481,4.681,2.883,4.735l12.819,0.293
							C201.691,410.303,203.185,408.908,203.265,407.121"/>
						<path style="fill:#272B3A;" d="M229.335,434.39c1.313,1.958,4.214,1.952,5.493-0.027c3.476-5.383,5.214-11.936,4.516-18.806
							c-0.002-0.017-0.004-0.034-0.006-0.051c-0.245-2.363-2.932-3.618-4.951-2.366l-10.733,6.655
							c-1.583,0.982-2.036,3.08-0.999,4.629L229.335,434.39z"/>
						<path style="fill:#272B3A;" d="M218.724,408.345l12.495-2.871c2.341-0.538,3.37-3.349,1.87-5.222
							c-4.362-5.44-10.603-9.239-17.624-10.508c-2.341-0.422-4.328,1.752-3.744,4.058l3.076,12.145
							C215.237,407.68,216.981,408.746,218.724,408.345"/>
						<path style="fill:#272B3A;" d="M209.31,432.627l-7.23,9.199c-1.495,1.902-0.501,4.729,1.861,5.252
							c2.967,0.656,6.086,0.857,9.275,0.533c3.188-0.325,6.203-1.152,8.977-2.393c2.209-0.988,2.612-3.958,0.765-5.52l-8.938-7.552
							C212.598,430.945,210.461,431.164,209.31,432.627"/>
						<path style="fill:#272B3A;" d="M185.528,418.117c-2.23-0.819-4.608,0.952-4.372,3.316c0.002,0.017,0.003,0.033,0.005,0.05
							c0.701,6.869,3.725,12.939,8.214,17.509c1.653,1.682,4.496,1.102,5.387-1.08l4.533-11.11c0.704-1.724-0.163-3.688-1.912-4.33
							L185.528,418.117z"/>
					</g>
				</g>
				<path style="fill:#EA343D;" d="M535.291,355.254c-34.591,0-62.633,28.597-62.633,63.872c0,5.446,0.673,10.734,1.932,15.782
					c6.489-0.034,10.584-0.056,11.413-0.061c-1.688-5.14-2.612-10.625-2.612-16.33c0-28.905,23.432-52.336,52.336-52.336
					c28.904,0,52.336,23.431,52.336,52.336c0,5.438-0.831,10.683-2.371,15.614c1.459-0.018,6.804-0.087,10.507-0.132
					c1.117-4.773,1.726-9.75,1.726-14.874C597.924,383.851,569.882,355.254,535.291,355.254"/>
				<path style="fill:#BF2235;" d="M347.66,332.947l-150.052-6.93c0,0,3.998,21.589,10.661,25.054
					c6.663,3.464,34.115,9.062,46.908,27.185c12.793,18.124,16.524,34.203,17.146,35.181c0.622,0.978,6.663,6.752,13.326,7.552
					c6.663,0.799,68.408-0.089,68.408-0.089S355.211,353.647,347.66,332.947"/>
				<path style="fill:#A01A37;" d="M306.364,419.799c-5.296-0.874-11.025-1.655-16.022-3.7c-10.814-4.426-16.245-14.7-20.789-24.833
					c-2.568-5.727-5.004-11.504-8.789-16.566c-3.59-4.8-8.001-8.91-13.103-12.072c-5.074-3.144-10.558-5.521-16.157-7.561
					c-5.662-2.063-11.573-3.642-16.727-6.867c-8.329-5.214-13.037-13.159-16.086-22.132l-1.083-0.05c0,0,3.998,21.589,10.661,25.054
					c6.663,3.464,34.115,9.062,46.908,27.185c12.793,18.124,16.524,34.203,17.146,35.181c0.622,0.978,6.663,6.752,13.326,7.552
					c3.044,0.365,17.586,0.378,32.484,0.284C314.195,420.913,310.266,420.443,306.364,419.799z"/>
				<path style="fill:#BF2235;" d="M347.66,332.947c0,0,6.13,19.989,6.396,87.952h108.74c0,0,6.13-5.064,7.196-6.13
					s1.333-61.033,0-66.364c-1.333-5.33-15.458-17.857-15.458-17.857L347.66,332.947z"/>
				<path style="fill:#A01A37;" d="M400.06,420.784c-10.665-1.294-22.263-3.623-31.034-10.233
					c-3.979-2.997-7.451-6.824-9.332-11.499c-2.655-6.603-2.864-13.825-2.953-20.85c-0.096-7.521-0.414-15.041-1.037-22.539
					c-0.647-7.767-1.794-15.509-4.624-22.793l-3.42,0.077c0,0,6.13,19.989,6.396,87.952h47.091
					C400.785,420.859,400.423,420.827,400.06,420.784z"/>
				<path style="fill:#EA343D;" d="M475.856,400.644c-3.998,11.194-5.863,14.126-5.863,14.126l-7.196,6.13
					c0,0-157.78-0.267-170.84-0.533c-13.06-0.267-14.925-3.998-17.857-5.863c-2.932-1.865-4.797-9.595-4.797-9.595l-8.839-0.266
					c1.408,4.736,2.176,9.748,2.176,14.94c0,6.498-1.193,12.714-3.356,18.454l0.158,0.008c0,0,10.839,0.711,12.793,0.711
					s3.731-2.486,6.219-2.665c2.447-0.175,201.171-1.209,207.55-1.243c-1.688-5.14-2.612-10.625-2.612-16.33
					c0-6.908,1.351-13.497,3.783-19.534C483.696,396.14,478.415,393.481,475.856,400.644"/>
				<path style="fill:#A01A37;" d="M383.707,342.143h-22.255c-0.662,0-1.199,0.507-1.199,1.133v4.31c0,2.625,2.252,4.753,5.03,4.753
					h14.593c2.778,0,5.03-2.128,5.03-4.753v-4.31C384.906,342.649,384.369,342.143,383.707,342.143"/>
				<path style="fill:#B8D0D8;" d="M383.707,342.143h-22.255c-0.662,0-1.199,0.507-1.199,1.133v4.264h24.653v-4.264
					C384.906,342.649,384.369,342.143,383.707,342.143"/>
				<path style="fill:#A01A37;" d="M247.781,338.145h-22.255c-0.662,0-1.199,0.507-1.199,1.133v4.311
					c0,2.624,2.253,4.752,5.031,4.752h14.591c2.779,0,5.031-2.128,5.031-4.752v-4.311
					C248.98,338.651,248.443,338.145,247.781,338.145"/>
				<path style="fill:#B8D0D8;" d="M247.781,338.145h-22.255c-0.662,0-1.199,0.507-1.199,1.133v4.265h24.653v-4.265
					C248.98,338.651,248.443,338.145,247.781,338.145"/>
				<path style="fill:#D6E6ED;" d="M172.156,326.284c-1.251-0.179-21.988-2.798-23.854-2.132c-1.866,0.666-5.864,7.729-6.796,11.727
					c-0.933,3.998-5.73,25.186-4.531,25.319c1.199,0.134,3.998,1.6,7.862-0.666c3.864-2.266,27.585-24.653,28.251-27.052
					C173.755,331.082,173.088,326.418,172.156,326.284"/>
				<path style="fill:#B8D0D8;" d="M172.156,326.284c-1.251-0.179-21.988-2.798-23.854-2.132c-0.529,0.188-1.231,0.901-1.983,1.903
					c3.838,0.031,8.009,0.024,11.408,1.631c4.068,1.923,3.642,5.894,1.486,9.294c-3.335,5.26-7.099,10.426-11.191,15.12
					c-2.919,3.349-6.373,7.154-10.534,9.198c1.389,0.337,3.958,1.221,7.349-0.767c3.864-2.266,27.585-24.653,28.251-27.052
					C173.755,331.082,173.088,326.418,172.156,326.284z"/>
				<path style="fill:#FFFFFF;" d="M147.561,336.06l-2.019-0.686c-0.209-0.072-0.435,0.041-0.506,0.25
					c-0.144,0.423-0.262,0.825-0.347,1.195c-0.191,0.82-0.603,2.621-1.08,4.795c-0.023,0.103-0.003,0.212,0.055,0.301
					c0.056,0.09,0.146,0.152,0.251,0.175l2.083,0.456c0.029,0.007,0.056,0.01,0.085,0.01c0.185,0,0.35-0.127,0.39-0.314
					c0.472-2.156,0.881-3.943,1.07-4.758c0.066-0.284,0.158-0.593,0.268-0.917C147.882,336.357,147.77,336.13,147.561,336.06"/>
				<path style="fill:#FFFFFF;" d="M152.028,329.21l-1.186-1.772c-0.059-0.087-0.15-0.148-0.255-0.169
					c-0.102-0.022-0.211,0.001-0.299,0.059c-0.993,0.665-2.89,3.267-3.637,4.799c-0.097,0.198-0.015,0.436,0.183,0.534l1.917,0.935
					c0.056,0.027,0.115,0.041,0.175,0.041c0.044,0,0.088-0.008,0.13-0.022c0.102-0.035,0.184-0.107,0.23-0.203
					c0.665-1.364,2.305-3.426,2.634-3.649C152.102,329.64,152.15,329.394,152.028,329.21"/>
				<path style="fill:#EA343D;" d="M165.755,299.027c-0.083-0.065-0.187-0.091-0.294-0.085c-0.105,0.012-0.202,0.065-0.268,0.147
					c-3.127,3.911-5.861,7.914-8.127,11.9c-0.108,0.193-0.041,0.436,0.15,0.546l1.853,1.054c0.061,0.034,0.129,0.052,0.198,0.052
					c0.035,0,0.07-0.005,0.105-0.015c0.102-0.029,0.189-0.096,0.242-0.188c2.189-3.853,4.836-7.728,7.867-11.517
					c0.138-0.173,0.11-0.424-0.062-0.561L165.755,299.027z"/>
				<path style="fill:#EA343D;" d="M175.702,291.354l-1.439-1.574c-0.148-0.162-0.402-0.175-0.564-0.025
					c-0.061,0.056-1.51,1.383-3.71,3.76c-0.15,0.162-0.141,0.415,0.021,0.565l1.564,1.449c0.074,0.068,0.172,0.106,0.273,0.106
					h0.015c0.107-0.005,0.206-0.05,0.278-0.127c2.118-2.29,3.521-3.575,3.535-3.588c0.078-0.072,0.126-0.172,0.13-0.277
					C175.811,291.537,175.773,291.433,175.702,291.354"/>
				<path style="fill:#FFFFFF;" d="M401.675,271.559c0,0-7.552,6.219-7.019,6.93c0.533,0.71,59.701,31.45,74.626,41.933
					s17.058,6.752,19.546,4.976c2.486-1.777,5.33-3.909,5.33-3.909s-13.967-11.205-37.136-24.165
					C428.594,281.42,401.675,271.559,401.675,271.559"/>
				<path style="fill:#D6E6ED;" d="M612.315,366.529c0,0-4.265-10.928-9.15-12.793c-4.887-1.866-17.946-6.13-29.317-8.796
					c0,0,8.263,14.304,8.884,14.748C583.354,360.133,588.861,361.731,612.315,366.529"/>
				<path style="fill:#B8D0D8;" d="M578.777,346.167c-1.658-0.433-3.312-0.847-4.93-1.227c0,0,8.263,14.304,8.884,14.748
					c0.622,0.444,6.13,2.043,29.584,6.841c0,0-0.17-0.434-0.476-1.135C598.658,365.319,584.326,357.93,578.777,346.167z"/>
				<path style="fill:#313C56;" d="M316.21,279.377l10.395,52.238c0,0-125.532-5.064-127.131-5.331
					c-1.599-0.267-2.132-3.198,3.198-10.661c5.331-7.462,15.725-22.92,22.921-26.118
					C232.789,286.307,265.039,278.844,316.21,279.377"/>
				<path style="fill:#FFFFFF;" d="M322.675,328.255c-39.984-1.614-107.809-4.387-120.745-5.028
					c0.423-1.105,1.343-2.941,3.344-5.743c0.52-0.728,1.086-1.531,1.694-2.39c4.973-7.038,14.229-20.136,19.923-22.667
					c4.696-2.086,32.734-9.879,84.13-9.879c0.849,0,1.702,0.002,2.56,0.006L322.675,328.255z"/>
				<path style="fill:#313C56;" d="M334.867,279.644c0,0,10.394,43.709,12.793,53.304c0,0,95.947,3.998,97.813,3.465
					c1.865-0.533,5.597-3.465,9.062-5.863c0,0-48.507-38.379-70.096-45.309C362.852,278.311,334.867,279.644,334.867,279.644"/>
				<path style="fill:#D6E6ED;" d="M444.067,333.263c-10.733,0-80.038-2.84-93.878-3.411c-2.53-10.317-8.914-37.098-11.296-47.104
					c0.526-0.006,1.099-0.009,1.715-0.009c9.551,0,27.818,0.721,42.853,5.547c17.56,5.637,54.399,33.418,65.715,42.145
					c-1.6,1.14-3.489,2.449-4.366,2.827C444.623,333.262,444.375,333.263,444.067,333.263"/>
				<path style="fill:#FFFFFF;" d="M381.933,287.824c-6.624-1.98-13.772-3.209-20.486-3.958
					c-4.042,11.804-8.839,23.323-13.989,34.706c1.087,4.52,2.05,8.499,2.732,11.279c3.471,0.144,10.429,0.429,19.077,0.777
					C373.465,316.365,378.813,302.372,381.933,287.824z"/>
				<path style="fill:#FFFFFF;" d="M398.58,295.472c-3.268-1.866-6.382-3.512-9.222-4.823c-3.693,13.5-7.248,27.065-11.76,40.314
					c3.088,0.123,6.297,0.25,9.563,0.378C390.46,319.229,394.229,307.252,398.58,295.472z"/>
				<path style="fill:#313C56;" d="M433.692,333.029c4.838,0.148,8.501,0.233,10.375,0.233c0.308,0,0.557-0.001,0.743-0.005
					c0.877-0.378,2.767-1.688,4.366-2.828c-3.492-2.692-9.421-7.203-16.458-12.315C435.038,322.053,438.123,329.065,433.692,333.029
					"/>
				<path style="fill:#20222B;" d="M443.859,330.757c0.677-2.438-0.823-5.366-2.38-5.711c-1.558-0.344-5.205-0.778-5.774-1.292
					c-0.566-0.515-1.541-5.397-4.106-6.697c-2.564-1.299-18.093-5.732-19.288-5.292c-1.197,0.441-3.969,2.501-4.149,3.687
					c-0.18,1.186-0.455,12.538-0.244,13.741c0.213,1.201,2.986,3.772,4.863,4.272c1.879,0.499,16.645,2.727,18.441,2.1
					c1.793-0.628,4.948-4.074,5.4-3.915c0.451,0.159,2.837,1.029,4.272,1.159C442.329,332.94,443.553,331.868,443.859,330.757"/>
				<path style="fill:#EA343D;" d="M209.869,356.32c-34.591,0-62.633,28.597-62.633,63.872c0,2.329,0.13,4.626,0.368,6.89
					c3.411,2.09,7.371,3.996,11.98,5.633l0.047,0.003c-1.085-4.197-1.663-8.599-1.663-13.135c0-28.904,23.431-52.336,52.336-52.336
					c28.903,0,52.335,23.432,52.335,52.336c0,6.498-1.193,12.714-3.356,18.454l0.158,0.008c0,0,6.554,0.431,10.389,0.622
					c1.73-5.851,2.67-12.049,2.67-18.475C272.501,384.917,244.459,356.32,209.869,356.32"/>
			</g>
			<g>
				<path style="fill:#D6E6ED;" d="M302.553,282.623c-3.733,0.065-7.327,0.17-10.786,0.31l-21.072,43.207
					c2.817,0.115,5.645,0.231,8.466,0.347L302.553,282.623z"/>
				<path style="fill:#D6E6ED;" d="M242.105,324.959c1.262,0.052,2.538,0.105,3.83,0.159l21.588-40.479
					c-2.11,0.216-4.137,0.444-6.085,0.682L242.105,324.959z"/>
				<path style="fill:#D6E6ED;" d="M246.396,287.554c-10.952,1.963-17.455,3.962-19.505,4.873
					c-5.694,2.531-14.95,15.629-19.923,22.667c-0.608,0.858-1.175,1.661-1.694,2.39c-2.001,2.802-2.92,4.638-3.344,5.743
					c3.951,0.196,13.027,0.591,24.861,1.09L246.396,287.554z"/>
				<path style="fill:#D6E6ED;" d="M313.581,282.554c-0.858-0.004-1.711-0.006-2.56-0.006c-0.012,0-0.024,0-0.036,0l-21.632,44.354
					c11.97,0.488,23.489,0.956,33.322,1.353L313.581,282.554z"/>
			</g>
		</g>
		<g>
			<path style="fill:#D6E6ED;" d="M573.271,317.756c0,0-37.314-3.864-53.838,11.327l9.995,5.464c0,0,17.457-13.593,43.709-14.259
				L573.271,317.756z"/>
			<g>
				<polygon style="fill:#547BDD;" points="647.852,333.014 646.075,454.037 658.957,453.683 663.666,352.58 673.793,352.58 
					677.524,453.325 691.384,452.616 689.606,333.014 689.429,330.016 648.029,329.839 				"/>
				<path style="fill:#3C62AF;" d="M654.547,329.866l-6.518-0.028l-0.178,3.176l-0.158,10.689
					C652.267,339.506,653.989,332.795,654.547,329.866"/>
				<path style="fill:#3C62AF;" d="M689.758,343.126l-0.151-10.112l-0.178-2.998l-8.839-0.037
					C681.438,336.698,685.787,340.772,689.758,343.126"/>
				<polygon style="fill:#FFFFFF;" points="689.68,337.86 689.606,333.014 689.429,330.016 648.029,329.838 647.852,333.014 
					647.777,338.004 				"/>
				<path style="fill:#ED822B;" d="M716.192,306.096c-1.333-4.531-13.593-19.389-20.122-26.984c-6.53-7.597-13.127-7.33-13.127-7.33
					h-27.362c-3.243-0.067-8.086,2.198-10.085,6.264c-1.999,4.064-8.928,29.25-9.66,30.517c-0.734,1.266-24.653,6.862-24.653,6.862
					l3.398,8.729c0,0,11.193-1.399,18.923-3.798c7.729-2.398,8.597-2.064,10.861-5.863c0.956-1.602,2.277-5.833,3.488-10.19v28.736
					h41.754l-0.432-44.256l15.29,20.047l-12.659,14.126l7.263,7.861c0,0,1.666-1.866,8.462-8.794
					C714.326,315.092,717.524,310.626,716.192,306.096"/>
				<path style="fill:#6B99F7;" d="M647.852,304.301v28.713h41.755l-0.301-30.774c-0.938-0.708-5.874-4.641-6.297-9.403v-21.057
					c-0.037,0-0.065,0.002-0.065,0.002h-4.397v17.257h-20.122v-17.257h-2.844c-0.463-0.01-0.962,0.034-1.478,0.118
					c0.027,4.689,0.113,19.222,0.057,20.004C654.092,292.836,653.271,297.042,647.852,304.301"/>
				<path style="fill:#FFDEBB;" d="M674.53,271.781h-11.768c0.044,2.341,2.326,4.198,5.789,4.198
					C671.979,275.979,674.436,274.092,674.53,271.781"/>
				<path style="fill:#EAB096;" d="M616.38,318.089c-2.132-4.531-8.329-5.197-14.326,0.133c-5.996,5.331,4.465,13.128,5.729,13.193
					c1.268,0.067,7.313-2.921,8.929-7.063C617.778,321.621,616.38,318.089,616.38,318.089"/>
				<rect x="664.887" y="265.251" style="fill:#FFDEBB;" width="7.996" height="8.528"/>
				<path style="fill:#EAB096;" d="M672.883,271.782v-6.531h-7.996v6.301C667.538,272.724,670.426,273.255,672.883,271.782z"/>
				<path style="fill:#20222B;" d="M686.009,221.342c0,0,0.865-8.462-14.792-8.596c-15.658-0.133-24.128,9.812-23.587,16.992
					c0.465,6.197,4.196,9.195,8.729,9.661c4.53,0.467,27.317,9.928,29.716,9.262c2.399-0.666,7.862-10.927,6.731-19.124
					C691.671,221.342,686.009,221.342,686.009,221.342"/>
				<path style="fill:#FFDEBB;" d="M683.877,222.519h-19.945c-6.869,0-12.438,5.569-12.438,12.438v20.522
					c0,8.538,6.921,13.327,15.458,13.327c9.519,0,17.235-7.717,17.235-17.236V222.83
					C684.188,222.658,684.048,222.519,683.877,222.519"/>
				<path style="fill:#EAB096;" d="M666.959,234.341c6.174-0.305,12.083-0.434,17.229-3.687v-7.824c0-0.172-0.14-0.312-0.31-0.312
					h-19.945c-5.998,0-11.003,4.247-12.176,9.898C655.368,235.492,662.874,234.543,666.959,234.341z"/>
				<path style="fill:#20222B;" d="M683.743,225.406c0,0-6.196,6.929,0.533,22.854c0,0,7.528-14.258,4.797-20.722
					c-2.731-6.462-10.327-11.993-23.254-10.061c-12.926,1.932-15.658,12.259-15.658,12.259S666.352,235.4,683.743,225.406"/>
				<path style="fill:#FFDEBB;" d="M682.744,245.861c0,0,0.465-5.263,5.129-5.597c4.665-0.332,4.665,6.063,2.932,9.528
					c-1.732,3.464-5.396,4.798-7.395,2.465L682.744,245.861z"/>
				<path style="fill:#20222B;" d="M677.214,238.399c-0.1,0.055-0.211-0.585-0.828-1.012c-0.308-0.204-0.749-0.295-1.245-0.306
					l-0.382-0.001c-0.106,0.01-0.203,0.023-0.315,0.063c-0.219,0.073-0.443,0.192-0.659,0.333c-0.854,0.597-1.242,1.017-1.479,1.174
					c-0.233,0.171-0.294,0.135-0.357,0.081c-0.06-0.051-0.109-0.114,0.053-0.365c0.175-0.24,0.511-0.717,1.461-1.381
					c0.245-0.16,0.511-0.302,0.81-0.396c0.148-0.049,0.317-0.07,0.482-0.077l0.411,0.017c0.54,0.035,1.093,0.18,1.469,0.491
					c0.385,0.304,0.531,0.694,0.593,0.943C677.288,238.224,677.264,238.381,677.214,238.399"/>
				<path style="fill:#20222B;" d="M655.892,238.532c-0.063-0.024,0.101-0.575,0.642-1.259c0.271-0.335,0.668-0.698,1.201-0.912
					c0.513-0.211,1.198-0.262,1.762-0.009c1.083,0.512,1.383,1.053,1.559,1.282c0.153,0.257,0.098,0.318,0.034,0.365
					c-0.067,0.049-0.127,0.082-0.346-0.089c-0.228-0.142-0.587-0.602-1.468-1.013c-0.435-0.194-0.906-0.163-1.345-0.019
					c-0.428,0.147-0.785,0.415-1.063,0.685C656.313,238.109,656.01,238.589,655.892,238.532"/>
				<path style="fill:#20222B;" d="M665.553,253.391c-0.044,0.059-0.352-0.089-0.81-0.384c-0.229-0.147-0.497-0.329-0.786-0.546
					c-0.145-0.107-0.295-0.223-0.45-0.352c-0.31-0.143-0.328-0.652-0.036-0.844c1.242-1.178,2.398-1.837,2.483-1.738
					c0.107,0.124-0.938,1.012-2.094,2.107c-0.076,0.088-0.021,0.024-0.041,0.044c0.015,0.014-0.035-0.028,0.033,0.035
					c0.143,0.124,0.28,0.245,0.415,0.363c0.251,0.224,0.487,0.434,0.708,0.631C665.372,253.076,665.598,253.331,665.553,253.391"/>
				<path style="fill:#20222B;" d="M689.407,244.796c-0.053,0.03-0.144-0.262-0.434-0.666c-0.144-0.194-0.348-0.431-0.643-0.52
					c-0.288-0.101-0.648-0.02-0.978,0.216c-0.66,0.48-1.213,1.364-1.592,2.356c-0.193,0.495-0.342,1.01-0.319,1.534
					c0.004,0.52,0.197,1.03,0.541,1.351c0.363,0.316,0.75,0.284,0.947,0.034c0.2-0.245,0.288-0.633,0.324-0.92
					c0.063-0.591-0.125-0.941-0.28-1.149c-0.351-0.397-0.408-0.413-0.365-0.504c0.013-0.052,0.125-0.208,0.669,0.222
					c0.254,0.222,0.57,0.732,0.516,1.48c-0.039,0.359-0.08,0.777-0.426,1.246c-0.186,0.209-0.484,0.417-0.839,0.408
					c-0.345,0.001-0.674-0.15-0.936-0.376c-0.51-0.476-0.726-1.15-0.729-1.774c-0.02-0.631,0.168-1.227,0.382-1.746
					c0.43-1.038,1.028-1.969,1.835-2.514c0.397-0.269,0.923-0.386,1.333-0.219c0.418,0.153,0.614,0.474,0.761,0.701
					C689.434,244.448,689.438,244.771,689.407,244.796"/>
				<path style="fill:#20222B;" d="M671.55,257.855c0.06,0.039-0.237,0.58-0.966,1.24c-0.715,0.649-1.943,1.413-3.482,1.538
					c-1.515,0.102-2.894-0.274-3.71-0.884c-0.829-0.603-0.979-1.289-0.904-1.295c0.066-0.035,0.32,0.52,1.115,0.978
					c0.768,0.466,2.065,0.76,3.452,0.664c1.393-0.111,2.546-0.751,3.29-1.297C671.097,258.249,671.489,257.809,671.55,257.855"/>
				<path style="fill:#20222B;" d="M673.082,245.195c0-1.325,0.478-2.399,1.066-2.399c0.589,0,1.066,1.074,1.066,2.399
					c0,1.325-0.477,2.398-1.066,2.398C673.56,247.594,673.082,246.521,673.082,245.195"/>
				<path style="fill:#20222B;" d="M657.225,245.262c0-1.325,0.477-2.398,1.065-2.398c0.59,0,1.066,1.073,1.066,2.398
					s-0.477,2.398-1.066,2.398C657.701,247.66,657.225,246.587,657.225,245.262"/>
				<path style="fill:#3C62AF;" d="M656.913,300.344v7.639c0,4.417,3.58,7.996,7.995,7.996h7.463c4.417,0,7.996-3.579,7.996-7.996
					v-7.639H656.913z"/>
				<path style="fill:#BF2235;" d="M677.737,451.616c-0.322,0-0.576,0.304-0.556,0.665c0.117,2.058,0.47,8.221,0.526,8.918
					c0.067,0.839,0.745,1.146,2.573,1.146h27.905c1.422,0,2.235-0.841,1.692-4.348c-0.541-3.509-6.434-4.729-10.497-5.263
					c-4.063-0.533-9.054-1.118-9.054-1.118H677.737z"/>
				<path style="fill:#FFFFFF;" d="M698.644,452.639c0.248,0.032,0.494,0.064,0.738,0.096c4.064,0.534,9.956,1.754,10.497,5.263
					c0.543,3.507-0.271,4.348-1.692,4.348H697.3C696.896,457.564,697.644,454.528,698.644,452.639"/>
				<path style="fill:#B8C9F1;" d="M710.034,460.237c-0.09,1.642-0.801,2.106-1.848,2.106h-27.905c-1.829,0-2.507-0.306-2.573-1.145
					c-0.015-0.185-0.052-0.768-0.098-1.545L710.034,460.237z"/>
				<path style="fill:#BF2235;" d="M658.853,451.616c0.32,0,0.575,0.304,0.555,0.665c-0.117,2.058-0.469,8.221-0.525,8.918
					c-0.067,0.839-0.743,1.146-2.568,1.146h-27.849c-1.419,0-2.229-0.841-1.689-4.348c0.541-3.509,6.422-4.729,10.477-5.263
					c4.056-0.533,9.036-1.118,9.036-1.118H658.853z"/>
				<path style="fill:#FFFFFF;" d="M637.989,452.639c-0.247,0.032-0.494,0.064-0.736,0.096c-4.055,0.534-9.935,1.754-10.477,5.263
					c-0.54,3.507,0.271,4.348,1.689,4.348h10.865C639.731,457.564,638.986,454.528,637.989,452.639"/>
				<path style="fill:#B8C9F1;" d="M626.622,460.237c0.088,1.642,0.799,2.106,1.844,2.106h27.849c1.825,0,2.501-0.306,2.568-1.145
					c0.015-0.185,0.051-0.768,0.098-1.545L626.622,460.237z"/>
				<path style="fill:#EA343D;" d="M690.851,321.932c0.177-0.89,1.333-1.511,1.333-3.288c0-2.309-0.978-3.998-2.488-3.998H662.6
					c-1.244,0-1.511,2.044-1.511,2.044h-88.464c-0.404,0-0.732,0.328-0.732,0.734v3.24c0,0.405,0.328,0.734,0.732,0.734h88.553
					c0,0-0.267,1.688,2.222,1.688h5.686c0.977,0,1.421,1.066,2.043,3.909c0.622,2.843,3.465,12.526,4.531,14.836
					c1.066,2.31,3.021,1.333,8.972,0.09c5.953-1.244,10.146-2.344,10.484-3.11C695.781,337.3,690.673,322.819,690.851,321.932
					 M691.694,336.679c-0.132,1.147-3.332,1.688-7.24,2.487c-3.909,0.8-5.42,1.422-6.574-0.533
					c-1.154-1.954-3.586-11.098-4.087-13.503c-0.444-2.132,0.889-2.665,3.287-2.665c2.398,0,8.707-0.8,10.039-0.179
					C687.912,322.656,691.872,335.124,691.694,336.679"/>
				<rect x="587.174" y="316.69" style="fill:#A01A37;" width="31.76" height="4.709"/>
				<path style="fill:#FFDEBB;" d="M695.271,325.685c-2.333-2.132-2.532-2.865-3.799-3.132c-1.266-0.267-4.464-1.331-7.063-1.065
					c-2.598,0.267-7.661,3.798-7.728,5.264c-0.067,1.466,0.466,2.999,1.998,3.198c1.533,0.2,5.798,3.731,8.395,4.998
					c2.599,1.265,6.863,1.132,9.461-0.201c2.6-1.332,2.533-3.465,2.533-4.197C699.068,329.815,695.271,325.685,695.271,325.685"/>
				<path style="fill:#FFDEBB;" d="M682.81,326.218c0,0-4.598,2.732-4.931,3.799c-0.333,1.065,0.6,3.397,2.532,2.997
					c1.932-0.399,4.131-2.132,4.131-2.132"/>
				<path style="fill:#FFDEBB;" d="M684.409,329.916c0,0-3.932,2.432-4.398,3.031c-0.466,0.6-0.233,3.998,2.932,2.433
					c3.107-1.537,3.599-1.866,3.599-1.866"/>
				<path style="fill:#FFDEBB;" d="M686.408,333.147c0,0-3.231,1.865-4.298,2.6c-1.066,0.731-0.133,3.597,2.166,2.997
					c2.299-0.6,5.73-3.331,5.73-3.331"/>
				<path style="fill:#FFDEBB;" d="M611.05,316.156c0,0-2.966,0.899-4.165-0.666c0,0,0.533,3.765-2.099,5.264
					c-2.632,1.499-2.132-2.932-1.532-5.797c0.6-2.865,3.564-4.83,6.13-3.698c2.565,1.133,5.964,2.599,6.129,5.464L611.05,316.156z"
					/>
				<path style="fill:#FFDEBB;" d="M600.934,321.636c1.487-2.505,2.784-4.589,0.652-5.441c-2.133-0.853-4.185,1.265-5.498,3.213
					c-1.312,1.947-1.285,3.783,0.349,4.615C598.069,324.854,599.038,324.827,600.934,321.636"/>
				<path style="fill:#FFDEBB;" d="M603.465,324.068c1.488-2.505,2.785-4.59,0.653-5.441c-2.134-0.854-4.186,1.264-5.498,3.212
					c-1.311,1.948-1.285,3.783,0.349,4.615C600.602,327.287,601.57,327.259,603.465,324.068"/>
				<path style="fill:#FFDEBB;" d="M606.419,326.451c1.386-2.564,2.599-4.697,0.433-5.464c-2.165-0.767-4.131,1.433-5.363,3.432
					c-1.232,1.999-1.133,3.831,0.533,4.598C603.685,329.782,604.653,329.717,606.419,326.451"/>
				<path style="fill:#FFDEBB;" d="M608.051,328.316c0,0,2.399-2.231,2.299-3.664c-0.1-1.433-1.099-2.632-3.398-0.566
					c-2.3,2.065-3.432,3.864-2.799,5.863c0.632,1.999,3.132,1.565,3.632,1.466C607.785,331.415,606.386,330.482,608.051,328.316"/>
			</g>
		</g>
		<g>
			<path style="fill:#B8C9F1;" d="M52.621,431.648c0,0-10.128-2.665-11.194-2.309c-1.066,0.354-3.998,7.284-5.797,15.68
				c-1.799,8.396-0.932,14.725,1.799,16.19c2.731,1.466,6.063-1.665,9.195-10.061c3.131-8.396,2.932-7.397,2.932-7.397
				L52.621,431.648z"/>
			<path style="fill:#FDFEFF;" d="M46.624,451.149c0.175-0.47,0.336-0.899,0.492-1.312c-2.55-1.26-6.767-2.836-11.859-2.859
				c-1.27,7.408-0.341,12.883,2.173,14.233C40.162,462.678,43.492,459.545,46.624,451.149"/>
			<path style="fill:#FDFEFF;" d="M44.311,429.682c-1.427-0.281-2.565-0.449-2.884-0.342c-1.066,0.354-3.998,7.284-5.797,15.68
				c-1.799,8.396-0.933,14.726,1.799,16.191c0.622,0.333,1.275,0.416,1.949,0.267c-2.628-1.938-2.564-7.504-0.75-16.925
				C39.991,437.475,42.653,432.356,44.311,429.682"/>
			<path style="fill:#3C62AF;" d="M67.635,377.635c-0.495,1.261-1.559,4.169-1.75,8.227c6.442-0.553,9.42-5.298,10.685-8.396
				l-7.025-1.475C69.545,375.99,68.324,375.88,67.635,377.635"/>
			<path style="fill:#EFB229;" d="M101.572,384.565c0,0-24.964-2.044-33.937-6.93c0,0,2.576-8.796,6.751-21.678
				c4.176-12.882,8.795-26.919,9.595-27.985c0.8-1.065,5.952-3.02,18.568,1.066c12.615,4.087,12.527,5.242,13.593,6.93
				c1.066,1.688-8.44,31.006-10.217,36.247C104.148,377.456,101.572,384.565,101.572,384.565"/>
			<path style="fill:#547BDD;" d="M110.456,348.539c1.019-5.097,2.511-10.134,2.758-15.399c-0.862-0.473-2.042-1.012-3.681-1.654
				c-0.17,2.421-0.827,8.818-3.208,14.056l-12.527-3.73c0,0,2.854-10.621,1.937-14.57c-1.439-0.282-2.726-0.465-3.873-0.566
				c0.245,2.647,0.247,8.925-3.528,17.468c-3.785,8.565-6.007,10.249-13.69,11.022c-0.085,0.265-0.172,0.53-0.257,0.794
				c-4.176,12.882-6.752,21.678-6.752,21.678c8.973,4.886,33.937,6.93,33.937,6.93s2.576-7.108,4.353-12.35
				c0.735-2.169,2.794-8.464,4.88-15.214C110.332,355.258,109.748,352.08,110.456,348.539"/>
			<path style="fill:#3C62AF;" d="M87.669,350.737l-2.597,8.181c-0.761,2.399,0.643,4.948,3.078,5.587l9.363,2.455
				c2.227,0.583,4.526-0.647,5.276-2.824l2.935-8.534L87.669,350.737z"/>
			<path style="fill:#B56F57;" d="M108.364,331.039c-1.557-0.58-3.464-1.24-5.814-2.001c-1.638-0.53-3.144-0.954-4.536-1.297
				c-0.137,1.321,0.251,3.143,2.781,4.54C104.931,334.565,107.806,333.072,108.364,331.039"/>
			<polygon style="fill:#B56F57;" points="101.705,321.354 99.706,329.128 106.414,331.436 108.501,323.797 			"/>
			<path style="fill:#9E584A;" d="M106.841,329.873l1.66-6.076l-6.796-2.443l-1.408,5.476
				C101.917,328.766,104.217,329.875,106.841,329.873z"/>
			<path style="fill:#20222B;" d="M122.849,291.503l11.327,2.532c0,0-3.464,4.131-11.727,7.196
				c-8.262,3.065-3.731-10.661-3.731-10.661L122.849,291.503z"/>
			<path style="fill:#B56F57;" d="M111.173,327.968L111.173,327.968c-9.939-0.339-17.721-6.54-17.379-16.478l0.798-25.469
				l31.244,1.069l-0.96,28.083C124.625,322.489,118.489,328.219,111.173,327.968"/>
			<path style="fill:#9E584A;" d="M103.799,294.134c6.926,2.97,14.224,3.87,21.657,4.039l0.379-11.083l-31.244-1.069l-0.083,2.658
				C96.973,291.209,100.816,292.855,103.799,294.134z"/>
			<path style="fill:#20222B;" d="M134.176,294.035c0,0-17.191,4.931-36.38-5.73c0,0,4.264,9.195-5.73,19.989
				c0,0-5.463-5.464-4.797-14.525c0.666-9.062,5.73-10.261,5.73-10.261s0.666-10.261,15.325-8.929
				c14.659,1.333,26.119,13.46,26.119,13.46s-4.531-1.2-6.663,0C127.78,288.039,129.246,291.903,134.176,294.035"/>
			<path style="fill:#B56F57;" d="M94.865,304.829c0,0-0.089-6.13-4.486-5.375c-4.397,0.756-4.176,7.952-1.955,10.839
				c2.222,2.887,5.42,1.333,5.687,0.222C94.377,309.405,94.865,304.829,94.865,304.829"/>
			<path style="fill:#20222B;" d="M104.158,305.129c0.179-1.362,0.818-2.401,1.425-2.321c0.608,0.08,0.956,1.248,0.776,2.611
				c-0.179,1.361-0.817,2.4-1.424,2.321C104.327,307.66,103.979,306.491,104.158,305.129"/>
			<path style="fill:#20222B;" d="M118.861,305.929c0.179-1.362,0.818-2.401,1.425-2.321c0.609,0.08,0.956,1.248,0.776,2.61
				c-0.179,1.362-0.817,2.401-1.424,2.322C119.029,308.46,118.682,307.291,118.861,305.929"/>
			<path style="fill:#20222B;" d="M102.771,300.21c-0.069-0.031,0.169-0.581,0.827-1.175c0.332-0.288,0.779-0.592,1.347-0.722
				c0.536-0.165,1.292-0.049,1.764,0.365c0.483,0.394,0.699,0.794,0.849,1.087c0.146,0.299,0.21,0.513,0.238,0.662
				c0.057,0.299-0.017,0.338-0.094,0.359c-0.08,0.022-0.146,0.03-0.293-0.21c-0.167-0.209-0.34-0.794-1.063-1.438
				c-0.736-0.642-1.852-0.205-2.462,0.236C103.233,299.83,102.879,300.27,102.771,300.21"/>
			<path style="fill:#20222B;" d="M122.005,301.543c-0.069,0.052-0.365-0.371-0.908-0.845c-0.269-0.229-0.62-0.471-0.989-0.515
				c-0.34-0.057-0.751,0.174-1.121,0.444c-0.734,0.569-1.062,0.96-1.271,1.107c-0.204,0.158-0.266,0.125-0.331,0.075
				c-0.064-0.049-0.116-0.107,0.013-0.345c0.142-0.227,0.418-0.672,1.241-1.311c0.411-0.292,0.936-0.622,1.547-0.516
				c0.567,0.106,0.943,0.447,1.211,0.733C121.927,300.97,122.096,301.479,122.005,301.543"/>
			<path style="fill:#20222B;" d="M113.077,313.979c-0.046-0.059,0.15-0.293,0.48-0.645c0.181-0.194,0.37-0.397,0.568-0.612
				c0.101-0.114,0.205-0.238,0.284-0.358c0.041-0.075,0.046-0.084,0.039-0.075c-0.013-0.013,0.028,0.03-0.047-0.043
				c-1.111-0.844-2.175-1.505-2.079-1.642c0.07-0.104,1.189,0.291,2.439,1.243c0.051,0.053,0.249,0.228,0.225,0.399
				c-0.002,0.184-0.083,0.338-0.14,0.407c-0.12,0.168-0.244,0.294-0.365,0.411c-0.242,0.233-0.474,0.412-0.676,0.556
				C113.403,313.907,113.122,314.038,113.077,313.979"/>
			<path style="fill:#20222B;" d="M89.579,303.897c-0.034,0.012-0.105-0.29,0.058-0.804c0.087-0.248,0.262-0.565,0.615-0.771
				c0.337-0.195,0.838-0.288,1.304-0.063c0.921,0.476,1.313,1.563,1.6,2.597c0.324,1.043,0.209,2.53-0.889,3.337
				c-0.271,0.188-0.602,0.319-0.945,0.27c-0.335-0.044-0.625-0.245-0.771-0.472c-0.301-0.456-0.356-0.86-0.355-1.243
				c0.049-0.785,0.517-1.163,0.764-1.33c0.561-0.33,0.645-0.203,0.664-0.144c0.038,0.088,0,0.117-0.407,0.471
				c-0.183,0.183-0.475,0.481-0.48,1.017c-0.006,0.489,0.351,1.553,1.196,0.947c0.387-0.257,0.636-0.741,0.748-1.219
				c0.114-0.495,0.063-0.989-0.058-1.491c-0.232-0.987-0.606-1.961-1.239-2.331c-0.302-0.187-0.658-0.153-0.934-0.044
				c-0.269,0.117-0.448,0.335-0.559,0.54C89.671,303.582,89.644,303.89,89.579,303.897"/>
			<path style="fill:#BF2235;" d="M115.659,318.479c0.04-0.374-0.233-0.704-0.608-0.739c-1.705-0.163-6.255-0.603-7.26-0.783
				c-1.244-0.222-2.266,1.066-1.511,3.198c0.755,2.132,2.932,2.932,5.996,2.577C114.841,322.434,115.508,319.897,115.659,318.479"/>
			<path style="fill:#EA343D;" d="M108.676,319.266c-1.032-0.009-1.815,0.335-2.408,0.84c0.005,0.017,0.006,0.032,0.013,0.049
				c0.755,2.132,2.932,2.932,5.996,2.577c0.913-0.106,1.576-0.503,2.07-1.023C113.491,320.081,111.482,319.288,108.676,319.266"/>
			<path style="fill:#FFFFFF;" d="M102.918,380.816c-4.436-0.451-14.051-1.53-22.246-3.16c-6.106-1.214-9.788-2.77-11.869-3.925
				c-0.755,2.49-1.168,3.903-1.168,3.903c8.973,4.886,33.936,6.93,33.936,6.93S102.138,383.004,102.918,380.816"/>
			<path style="fill:#FFFFFF;" d="M143.505,343.475c0,0,4.531-5.129,8.862-1.664c4.33,3.464,0.866,11.259,1.665,12.526
				c0.8,1.265,4.664,5.529,3.198,10.46c-1.466,4.931-5.264,6.064-5.264,6.064s-0.533,5.33-6.196,6.396
				c-5.664,1.066-7.329-2.599-7.329-2.599s-5.73,1.466-7.596-4.265c-1.865-5.73,1.466-10.794,1.466-10.794
				s-3.598-5.529,0.866-13.392C137.241,340.276,143.505,343.475,143.505,343.475"/>
			<path style="fill:#D6E6ED;" d="M141.503,350.289c0,0,3.48-3.939,6.807-1.278c3.326,2.66,0.665,8.648,1.279,9.62
				c0.614,0.973,3.583,4.248,2.456,8.034c-1.126,3.788-4.043,4.657-4.043,4.657s-0.409,4.095-4.759,4.913
				c-4.35,0.82-5.629-1.996-5.629-1.996s-4.401,1.127-5.835-3.275c-1.433-4.4,1.126-8.29,1.126-8.29s-2.764-4.246,0.664-10.286
				C136.692,347.833,141.503,350.289,141.503,350.289"/>
			<path style="fill:#B56F57;" d="M127.38,361.198c0,0,4.264-6.396,7.662-9.128c3.399-2.731,10.794-5.863,12.327-5.664
				c1.532,0.2,2.465,2.199-1.199,3.465c-3.664,1.267-6.93,3.8-6.93,3.8s7.795-1.067,9.928-1.268c2.132-0.2,3.532,3.399-0.066,3.599
				c-3.598,0.2-8.995,1.266-8.995,1.266s7.595-1.532,9.661-0.932c2.065,0.599,2.265,3.13-0.4,3.465
				c-2.665,0.332-9.062,1.265-9.062,1.265s4.597,0.533,6.929,1.333c2.332,0.799,2.465,3.73-0.799,3.464
				c-3.265-0.266-6.93-0.998-6.93-0.998s-1.932,4.729-7.462,4.797c-5.53,0.066-4.864-2.999-4.864-2.999L127.38,361.198z"/>
			<path style="fill:#EFB229;" d="M88.602,332.947c0,0,10.994,27.252,13.66,29.051c2.665,1.799,25.385-1.799,25.385-1.799
				s1.8,3.198,1.267,9.062c0,0-20.323,2.932-26.053,3.131c-5.73,0.201-7.196-1.531-10.86-7.463
				c-3.665-5.93-11.794-22.054-13.127-26.852c-1.333-4.798,3.464-10.861,8.129-11.326C87.002,326.752,87.269,328.883,88.602,332.947
				"/>
		</g>
		<g>
			<path style="fill:#FFFFFF;" d="M183.275,346.037c-0.313-0.052-0.559-0.298-0.611-0.611l-0.625-3.795l-0.626,3.795
				c-0.051,0.314-0.297,0.56-0.61,0.611l-3.794,0.625l3.794,0.625c0.313,0.052,0.56,0.297,0.61,0.611l0.626,3.794l0.625-3.794
				c0.052-0.314,0.297-0.56,0.611-0.611l3.795-0.625L183.275,346.037z"/>
			<path style="fill:#FFFFFF;" d="M141.287,310.691c-0.249-0.04-0.444-0.236-0.486-0.485l-0.497-3.018l-0.498,3.018
				c-0.041,0.249-0.236,0.445-0.486,0.485l-3.017,0.498l3.017,0.497c0.25,0.041,0.446,0.236,0.486,0.485l0.498,3.018l0.497-3.018
				c0.042-0.249,0.237-0.444,0.486-0.485l3.018-0.497L141.287,310.691z"/>
			<path style="fill:#FFFFFF;" d="M193.92,286.949c-0.305-0.05-0.544-0.289-0.594-0.593l-0.608-3.688l-0.608,3.688
				c-0.05,0.304-0.288,0.543-0.593,0.593l-3.688,0.608l3.688,0.606c0.305,0.051,0.543,0.29,0.593,0.595l0.608,3.688l0.608-3.688
				c0.05-0.305,0.288-0.544,0.594-0.595l3.688-0.606L193.92,286.949z"/>
			<path style="fill:#CEE3F4;" d="M508.838,337.463c0.321,2.412,2.364,4.279,4.863,4.279c0.449,0,0.875-0.079,1.288-0.19
				c0.667,0.291,1.402,0.457,2.177,0.457c1.049,0,2.017-0.309,2.848-0.82c0.765,0.59,1.711,0.954,2.75,0.954
				c1.643,0,3.065-0.881,3.861-2.189c0.743,0.448,1.604,0.723,2.535,0.723c1.46,0,2.759-0.647,3.661-1.655
				c0.813,0.689,1.852,1.122,3.002,1.122c2.575,0,4.664-2.089,4.664-4.664c0-2.576-2.089-4.664-4.664-4.664
				c-1.072,0-2.05,0.377-2.839,0.986c-0.763-1.155-2.069-1.919-3.558-1.919c-1.153,0-2.196,0.462-2.963,1.206
				c-0.463-1.615-1.935-2.806-3.7-2.806c-0.278,0-0.548,0.032-0.811,0.089c-0.06-2.266-1.906-4.087-4.185-4.087
				c-1.915,0-3.511,1.289-4.016,3.041c-0.841-0.723-1.919-1.175-3.115-1.175c-2.648,0-4.798,2.147-4.798,4.797
				c0,0.096,0.024,0.187,0.029,0.281c-0.055-0.002-0.107-0.015-0.162-0.015c-2.355,0-4.265,1.671-4.265,3.731
				c0,2.061,1.909,3.731,4.265,3.731C506.949,338.678,508.058,338.205,508.838,337.463"/>
			<path style="fill:#FFFFFF;" d="M501.651,333.85c0.678,1.274,2.145,2.163,3.855,2.163c1.243,0,2.353-0.473,3.132-1.215
				c0.322,2.412,2.364,4.279,4.864,4.279c0.448,0,0.874-0.079,1.288-0.19c0.666,0.291,1.402,0.457,2.177,0.457
				c1.048,0,2.017-0.308,2.847-0.82c0.765,0.59,1.711,0.954,2.75,0.954c1.642,0,3.066-0.881,3.861-2.188
				c0.743,0.448,1.604,0.723,2.535,0.723c1.461,0,2.759-0.647,3.662-1.655c0.813,0.689,1.852,1.122,3.001,1.122
				c2.227,0,4.083-1.564,4.547-3.652c-0.669-1.757-2.356-3.011-4.348-3.011c-1.072,0-2.05,0.377-2.839,0.986
				c-0.763-1.155-2.069-1.919-3.558-1.919c-1.153,0-2.196,0.462-2.963,1.206c-0.463-1.615-1.935-2.806-3.7-2.806
				c-0.278,0-0.548,0.032-0.811,0.089c-0.06-2.266-1.906-4.087-4.185-4.087c-1.915,0-3.511,1.289-4.016,3.041
				c-0.841-0.723-1.919-1.175-3.115-1.175c-2.648,0-4.798,2.147-4.798,4.797c0,0.096,0.024,0.187,0.029,0.281
				c-0.055-0.002-0.107-0.015-0.162-0.015C503.79,331.215,502.188,332.328,501.651,333.85z"/>
			<path style="fill:#CEE3F4;" d="M547.267,356.612c0.007-0.114,0.018-0.228,0.018-0.345c0-3.311-2.685-5.996-5.997-5.996
				c-0.767,0-1.499,0.149-2.172,0.411c-1.177-3.64-4.59-6.274-8.622-6.274c-4.842,0-8.784,3.8-9.037,8.579
				c-1.181-0.626-2.526-0.983-3.955-0.983c-4.674,0-8.462,3.787-8.462,8.462c0,2.925,1.483,5.502,3.739,7.023
				c0.084,4.782,3.983,8.636,8.787,8.636c3.398,0,6.34-1.931,7.805-4.752c1.194,0.813,2.636,1.287,4.189,1.287
				c2.694,0,5.047-1.433,6.36-3.573c1.433,1.923,3.718,3.174,6.3,3.174c4.342,0,7.862-3.521,7.862-7.863
				C554.081,360.41,551.112,357.126,547.267,356.612"/>
			<path style="fill:#FFFFFF;" d="M552.264,359.386c-1.232-1.48-2.992-2.506-4.997-2.773c0.007-0.114,0.018-0.228,0.018-0.345
				c0-3.311-2.685-5.996-5.997-5.996c-0.767,0-1.499,0.149-2.172,0.411c-1.177-3.64-4.59-6.274-8.622-6.274
				c-4.842,0-8.784,3.8-9.037,8.579c-1.181-0.626-2.526-0.983-3.955-0.983c-3.242,0-6.056,1.824-7.477,4.502
				c0.577,1.667,1.672,3.093,3.109,4.062c0.081,4.557,3.795,8.227,8.371,8.227c3.237,0,6.04-1.839,7.435-4.527
				c1.138,0.773,2.512,1.227,3.99,1.227c2.567,0,4.809-1.365,6.06-3.404c1.364,1.832,3.541,3.023,6.002,3.023
				C548.521,365.113,551.471,362.671,552.264,359.386z"/>
			<path style="fill:#FFFFFF;" d="M551.815,344.808c-1.546,0-2.799,1.252-2.799,2.799c0,1.545,1.253,2.798,2.799,2.798
				s2.798-1.253,2.798-2.798C554.613,346.06,553.361,344.808,551.815,344.808"/>
			<path style="fill:#FFFFFF;" d="M546.885,335.079c1.176,0,2.132-0.955,2.132-2.132c0-1.177-0.956-2.132-2.132-2.132
				c-1.177,0-2.133,0.955-2.133,2.132C544.752,334.124,545.708,335.079,546.885,335.079"/>
			<path style="fill:#CEE3F4;" d="M479.987,305.629c-2.429,0-4.397,1.969-4.397,4.397c0,2.429,1.969,4.397,4.397,4.397
				c2.43,0,4.398-1.969,4.398-4.397C484.386,307.598,482.417,305.629,479.987,305.629"/>
			<path style="fill:#CEE3F4;" d="M468.128,294.169c-0.093,0-0.18,0.022-0.272,0.026c0.258-0.624,0.404-1.308,0.404-2.025
				c0-2.883-2.292-5.216-5.151-5.313c0.23-0.743,0.355-1.532,0.355-2.351c0-4.379-3.551-7.929-7.931-7.929
				c-3.109,0-5.794,1.795-7.093,4.401c-1.223-0.841-2.703-1.336-4.3-1.336c-4.195,0-7.596,3.399-7.596,7.596
				c0,4.194,3.4,7.596,7.596,7.596c1.477,0,2.85-0.428,4.016-1.157c0.095,3.082,2.607,5.555,5.713,5.555
				c0.751,0,1.466-0.154,2.124-0.417c-0.152,0.493-0.259,1.006-0.259,1.55c0,2.906,2.357,5.264,5.264,5.264
				c1.598,0,3.012-0.728,3.979-1.851c0.884,0.652,1.967,1.051,3.151,1.051c2.944,0,5.33-2.386,5.33-5.33
				C473.458,296.555,471.072,294.169,468.128,294.169"/>
			<path style="fill:#FFFFFF;" d="M468.128,294.169c-0.093,0-0.18,0.022-0.272,0.026c0.258-0.624,0.404-1.308,0.404-2.025
				c0-2.883-2.292-5.216-5.151-5.313c0.23-0.743,0.355-1.532,0.355-2.351c0-4.379-3.551-7.929-7.931-7.929
				c-3.109,0-5.794,1.795-7.093,4.401c-1.223-0.841-2.703-1.336-4.3-1.336c-1.576,0-3.039,0.479-4.253,1.301
				c-0.491,0.939-0.773,1.999-0.773,3.127c0,3.791,3.139,6.868,7.014,6.868c1.364,0,2.632-0.389,3.709-1.047
				c0.088,2.787,2.408,5.022,5.275,5.022c0.695,0,1.354-0.14,1.963-0.378c-0.142,0.446-0.239,0.91-0.239,1.402
				c0,2.627,2.177,4.759,4.86,4.759c1.476,0,2.781-0.658,3.674-1.674c0.815,0.59,1.818,0.952,2.911,0.952
				c2.043,0,3.794-1.22,4.538-2.956C471.926,295.331,470.171,294.169,468.128,294.169z"/>
			<path style="fill:#FFFFFF;" d="M473.324,268.849c-1.324,0-2.398,1.075-2.398,2.399c0,1.324,1.074,2.399,2.398,2.399
				c1.325,0,2.399-1.074,2.399-2.399C475.724,269.924,474.649,268.849,473.324,268.849"/>
			<path style="fill:#FFFFFF;" d="M494.113,355.068c-1.472,0-2.665,1.193-2.665,2.666c0,1.472,1.193,2.665,2.665,2.665
				c1.473,0,2.665-1.193,2.665-2.665C496.778,356.262,495.586,355.068,494.113,355.068"/>
			<path style="fill:#CEE3F4;" d="M629.373,405.574c0-2.375-1.272-4.447-3.167-5.59c0.966-1.005,1.567-2.366,1.567-3.871
				c0-3.092-2.506-5.598-5.597-5.598c-0.558,0-1.087,0.107-1.595,0.259c-1.007-3.015-3.846-5.189-7.2-5.189
				c-4.196,0-7.596,3.4-7.596,7.597c0,0.608,0.079,1.198,0.214,1.766c-3.631,0.329-6.478,3.378-6.478,7.095
				c0,3.939,3.192,7.131,7.13,7.131c0.391,0,0.773-0.04,1.146-0.102c0.157,3.319,2.891,5.965,6.249,5.965
				c2.547,0,4.733-1.523,5.714-3.705c0.918,0.492,1.967,0.773,3.081,0.773C626.449,412.104,629.373,409.181,629.373,405.574"/>
			<path style="fill:#FFFFFF;" d="M600.24,398.935c1.201,2.643,3.792,4.478,6.805,4.478c0.413,0,0.816-0.043,1.21-0.109
				c0.166,3.619,3.05,6.504,6.593,6.504c2.687,0,4.994-1.661,6.029-4.041c0.968,0.537,2.074,0.844,3.251,0.844
				c2.023,0,3.839-0.908,5.099-2.345c-0.372-1.813-1.485-3.354-3.021-4.28c0.966-1.005,1.567-2.366,1.567-3.871
				c0-3.092-2.506-5.598-5.597-5.598c-0.558,0-1.087,0.107-1.595,0.259c-1.007-3.015-3.846-5.189-7.2-5.189
				c-4.196,0-7.596,3.4-7.596,7.597c0,0.608,0.079,1.198,0.214,1.766C603.459,395.177,601.306,396.743,600.24,398.935z"/>
			<path style="fill:#FFFFFF;" d="M635.503,376.124c-2.281,0-4.131,1.849-4.131,4.131c0,2.281,1.85,4.131,4.131,4.131
				c2.281,0,4.131-1.85,4.131-4.131C639.634,377.973,637.784,376.124,635.503,376.124"/>
			<path style="fill:#FFFFFF;" d="M628.04,418.101c-1.767,0-3.198,1.432-3.198,3.198c0,1.768,1.432,3.198,3.198,3.198
				s3.198-1.431,3.198-3.198C631.238,419.532,629.807,418.101,628.04,418.101"/>
			<path style="fill:#FFFFFF;" d="M502.717,346.273c0-2.281,1.851-4.131,4.131-4.131c2.281,0,4.132,1.85,4.132,4.131
				c0,2.281-1.851,4.131-4.132,4.131C504.567,350.404,502.717,348.555,502.717,346.273"/>
		</g>
		<g>
			<path style="fill:#20222B;" d="M305.949,377.856c15.594,0,25.001,9.676,25.163,25.883l0.013,1.302h-50.352l0.013-1.302
				C280.905,391.931,285.365,377.856,305.949,377.856 M305.949,376.79L305.949,376.79c-19.056,0-26.079,12.017-26.228,26.938
				l-0.023,2.38h52.504l-0.023-2.38C332.029,388.807,323.739,376.79,305.949,376.79"/>
			<polygon style="fill:#ED822B;" points="327.938,463.276 283.961,463.276 279.697,405.041 332.202,405.041 			"/>
			<path style="fill:#D8642A;" d="M304.989,452.477c-7.41-3.618-13.835-9.34-17.462-16.841c-2.535-5.241-5.126-10.895-6.814-16.72
				l3.248,44.36h43.976l0.43-5.873C320.257,457.536,312.151,455.975,304.989,452.477z"/>
			<polygon style="fill:#EFB229;" points="279.99,409.039 331.909,409.039 332.202,405.041 279.698,405.041 			"/>
			<path style="fill:#FFFFFF;" d="M296.621,408.772c0.199,4.798,1.332,6.596,3.132,6.797c1.798,0.198,2.864-2.266,4.663-0.201
				c1.799,2.066-0.599,11.86,3.398,14.326c3.998,2.465,5.398-1.599,5.797-5.464c0.399-3.864,1.598-6.328,3.397-4.664
				c1.799,1.667,3.865,1.466,4.197-1.065c0.334-2.532-0.666-5.73,1.933-4.599c2.52,1.1,3.032-3.821,2.635-8.861h-29.473
				C296.406,405.509,296.528,406.535,296.621,408.772"/>
		</g>
	</g>
</g>
</svg>
